<?xml version="1.0" encoding="utf-8"?>
<!-- Generator: Adobe Illustrator 25.2.0, SVG Export Plug-In . SVG Version: 6.00 Build 0)  -->
<svg version="1.1" id="Layer_1" xmlns="http://www.w3.org/2000/svg" xmlns:xlink="http://www.w3.org/1999/xlink" x="0px" y="0px"
	 viewBox="0 0 1366 768" style="enable-background:new 0 0 1366 768;" xml:space="preserve">
<style type="text/css">
	.st0{fill:#FFFFFF;}
	.st1{fill:none;stroke:#000000;stroke-width:2.3126;stroke-miterlimit:10;}
	.st2{fill:none;stroke:#000000;stroke-width:1.2885;stroke-miterlimit:10;}
	.st3{fill:none;stroke:#000000;stroke-width:1.4603;stroke-miterlimit:10;}
</style>
<g>
	<ellipse class="st0" cx="258" cy="216.5" rx="157.84" ry="151.34"/>
	<path d="M258,66.31c41.87,0,81.23,15.63,110.83,44.02c29.57,28.36,45.86,66.07,45.86,106.16s-16.29,77.8-45.86,106.16
		c-29.6,28.39-68.96,44.02-110.83,44.02s-81.23-15.63-110.83-44.02c-29.57-28.36-45.86-66.07-45.86-106.16s16.29-77.8,45.86-106.16
		C176.77,81.95,216.13,66.31,258,66.31 M258,64c-87.81,0-159,68.28-159,152.5S170.19,369,258,369s159-68.28,159-152.5
		S345.81,64,258,64L258,64z"/>
</g>
<g>
	<circle class="st0" cx="711" cy="300" r="120.84"/>
	<path d="M711,180.31c31.97,0,62.03,12.45,84.63,35.06c22.61,22.61,35.06,52.66,35.06,84.63s-12.45,62.03-35.06,84.63
		c-22.61,22.61-52.66,35.06-84.63,35.06s-62.03-12.45-84.63-35.06c-22.61-22.61-35.06-52.66-35.06-84.63s12.45-62.03,35.06-84.63
		C648.97,192.76,679.03,180.31,711,180.31 M711,178c-67.38,0-122,54.62-122,122s54.62,122,122,122s122-54.62,122-122
		S778.38,178,711,178L711,178z"/>
</g>
<g>
	<circle class="st0" cx="1141.5" cy="305.5" r="115.34"/>
	<path d="M1141.5,191.31c30.5,0,59.18,11.88,80.74,33.44s33.44,50.24,33.44,80.74s-11.88,59.18-33.44,80.74
		s-50.24,33.44-80.74,33.44s-59.18-11.88-80.74-33.44s-33.44-50.24-33.44-80.74s11.88-59.18,33.44-80.74S1111,191.31,1141.5,191.31
		 M1141.5,189c-64.34,0-116.5,52.16-116.5,116.5S1077.16,422,1141.5,422S1258,369.84,1258,305.5S1205.84,189,1141.5,189L1141.5,189z
		"/>
</g>
<g>
	<path d="M330.5,172.31c31.57,0,61.25,12.29,83.57,34.62s34.62,52,34.62,83.57s-12.29,61.25-34.62,83.57s-52,34.62-83.57,34.62
		s-61.25-12.29-83.57-34.62s-34.62-52-34.62-83.57s12.29-61.25,34.62-83.57S298.93,172.31,330.5,172.31 M330.5,170
		C263.95,170,210,223.95,210,290.5S263.95,411,330.5,411S451,357.05,451,290.5S397.05,170,330.5,170L330.5,170z"/>
</g>
<g>
	<path d="M838.5,157.31c37.45,0,72.65,14.58,99.13,41.06c26.48,26.48,41.06,61.68,41.06,99.13s-14.58,72.65-41.06,99.13
		c-26.48,26.48-61.68,41.06-99.13,41.06s-72.65-14.58-99.13-41.06c-26.48-26.48-41.06-61.68-41.06-99.13s14.58-72.65,41.06-99.13
		C765.85,171.89,801.05,157.31,838.5,157.31 M838.5,155C759.8,155,696,218.8,696,297.5S759.8,440,838.5,440S981,376.2,981,297.5
		S917.2,155,838.5,155L838.5,155z"/>
</g>
<ellipse class="st1" cx="1205" cy="279" rx="136" ry="149"/>
<circle class="st1" cx="574.5" cy="420.5" r="76.5"/>
<circle class="st1" cx="788.5" cy="266.5" r="161.5"/>
<circle class="st1" cx="661.5" cy="220.5" r="103.5"/>
<circle class="st1" cx="513" cy="207" r="90"/>
<circle class="st1" cx="446.5" cy="112.5" r="72.5"/>
<circle class="st1" cx="239" cy="130" r="66"/>
<circle class="st1" cx="186" cy="179" r="126"/>
<circle class="st1" cx="98" cy="484" r="81"/>
<circle class="st1" cx="171" cy="521" r="51"/>
<circle class="st1" cx="348" cy="504" r="43"/>
<circle class="st1" cx="435.5" cy="468.5" r="33.5"/>
<circle class="st1" cx="523" cy="415" r="25"/>
<circle class="st1" cx="584.5" cy="284.5" r="36.5"/>
<circle class="st1" cx="756.5" cy="265.5" r="23.5"/>
<circle class="st1" cx="946" cy="208" r="12"/>
<path class="st1" d="M1079,178c0,0-4.48,0-10,0s-10,0-10,0s4.48,0,10,0S1079,178,1079,178z"/>
<circle class="st1" cx="1177" cy="191" r="28"/>
<circle class="st1" cx="1079.5" cy="179.5" r="109.5"/>
<circle class="st1" cx="1067" cy="394" r="121"/>
<circle class="st1" cx="893.5" cy="367.5" r="67.5"/>
<circle class="st1" cx="723.5" cy="402.5" r="81.5"/>
<circle class="st1" cx="693.5" cy="211.5" r="90.5"/>
<circle class="st1" cx="774" cy="116" r="71"/>
<circle class="st1" cx="1047" cy="165" r="22"/>
<circle class="st1" cx="1030.5" cy="55.5" r="49.5"/>
<circle class="st1" cx="953" cy="119" r="94"/>
<circle class="st1" cx="1069.5" cy="213.5" r="135.5"/>
<circle class="st1" cx="1292.5" cy="125.5" r="61.5"/>
<circle class="st1" cx="1283.5" cy="51.5" r="45.5"/>
<circle class="st1" cx="1145.5" cy="90.5" r="65.5"/>
<circle class="st1" cx="1313" cy="426" r="42"/>
<circle class="st1" cx="1237" cy="553" r="32"/>
<circle class="st1" cx="1257" cy="444" r="60"/>
<circle class="st1" cx="337.5" cy="546.5" r="106.5"/>
<circle class="st1" cx="663" cy="615" r="30"/>
<circle class="st1" cx="779.5" cy="550.5" r="46.5"/>
<circle class="st1" cx="923" cy="580" r="30"/>
<circle class="st1" cx="1082.5" cy="556.5" r="23.5"/>
<circle class="st1" cx="853" cy="523" r="112"/>
<circle class="st1" cx="948" cy="572" r="95"/>
<circle class="st1" cx="1262.5" cy="680.5" r="35.5"/>
<circle class="st1" cx="1312.5" cy="608.5" r="36.5"/>
<circle class="st1" cx="1041" cy="580" r="65"/>
<circle class="st1" cx="1193.5" cy="564.5" r="31.5"/>
<circle class="st1" cx="1157.5" cy="650.5" r="53.5"/>
<circle class="st1" cx="1143.5" cy="515.5" r="45.5"/>
<circle class="st1" cx="1147.5" cy="591.5" r="68.5"/>
<circle class="st1" cx="1116" cy="376" r="18"/>
<circle class="st1" cx="1198" cy="258" r="21"/>
<circle class="st1" cx="1276" cy="286" r="38"/>
<circle class="st1" cx="1237.5" cy="394.5" r="94.5"/>
<circle class="st1" cx="672.5" cy="154.5" r="101.5"/>
<circle class="st1" cx="472.5" cy="68.5" r="28.5"/>
<circle class="st1" cx="172" cy="61" r="44"/>
<circle class="st1" cx="100.5" cy="102.5" r="62.5"/>
<circle class="st1" cx="115" cy="137" r="92"/>
<circle class="st1" cx="100.5" cy="374.5" r="62.5"/>
<circle class="st1" cx="322" cy="474" r="71"/>
<circle class="st1" cx="383.5" cy="551.5" r="18.5"/>
<circle class="st1" cx="231.5" cy="455.5" r="111.5"/>
<circle class="st1" cx="508.5" cy="387.5" r="57.5"/>
<circle class="st1" cx="452.5" cy="360.5" r="95.5"/>
<circle class="st1" cx="473" cy="557" r="4"/>
<circle class="st1" cx="543" cy="572" r="15"/>
<circle class="st1" cx="618" cy="538" r="70"/>
<circle class="st1" cx="511" cy="619" r="122"/>
<circle class="st1" cx="677.5" cy="616.5" r="64.5"/>
<circle class="st1" cx="845.5" cy="684.5" r="31.5"/>
<circle class="st1" cx="754" cy="673" r="43"/>
<circle class="st1" cx="942" cy="713" r="19"/>
<circle class="st1" cx="993" cy="744" r="12"/>
<circle class="st1" cx="1081.5" cy="708.5" r="14.5"/>
<circle class="st1" cx="1059.5" cy="667.5" r="16.5"/>
<circle class="st2" cx="942.5" cy="723.5" r="19.5"/>
<circle class="st2" cx="119.5" cy="581.5" r="9"/>
<circle class="st2" cx="568" cy="72" r="20.5"/>
<circle class="st2" cx="767.5" cy="106.5" r="16"/>
<circle class="st2" cx="943" cy="106" r="9.5"/>
<circle class="st2" cx="937" cy="110" r="78.5"/>
<circle class="st2" cx="917.5" cy="115.5" r="47"/>
<circle class="st2" cx="889.5" cy="198.5" r="44"/>
<circle class="st2" cx="955.5" cy="343.5" r="32"/>
<circle class="st2" cx="1123" cy="496" r="7.5"/>
<circle class="st3" cx="901" cy="498" r="42.5"/>
</svg>
