<?xml version="1.0" encoding="utf-8"?>
<!-- Generator: Adobe Illustrator 25.2.0, SVG Export Plug-In . SVG Version: 6.00 Build 0)  -->
<svg version="1.1" id="Layer_1" xmlns="http://www.w3.org/2000/svg" xmlns:xlink="http://www.w3.org/1999/xlink" x="0px" y="0px"
	 viewBox="0 0 517.8 631" style="enable-background:new 0 0 517.8 631;" xml:space="preserve">
<style type="text/css">
	.st0{fill:#F3FF5F;}
</style>
<polygon class="st0" points="153.8,271.5 71.3,220 153.8,168.4 140.6,147.4 41.3,209.4 41.3,230.5 140.6,292.6 "/>
<polygon class="st0" points="377.2,292.6 476.5,230.5 476.5,209.4 377.2,147.4 364,168.4 446.5,220 364,271.5 "/>
<rect x="169.4" y="207.5" transform="matrix(0.5547 -0.8321 0.8321 0.5547 -67.7226 313.3839)" class="st0" width="179" height="24.8"/>
<path class="st0" d="M345.8,455.8V344.1H172v62.1H35.4V580h446.9V455.8H345.8z M457.5,555.1H60.3V431h136.6v-62.1H321v111.7h136.6
	V555.1z"/>
</svg>
