<?xml version="1.0" encoding="utf-8"?>
<!-- Generator: Adobe Illustrator 25.2.0, SVG Export Plug-In . SVG Version: 6.00 Build 0)  -->
<svg version="1.1"
	 id="Layer_1" xmlns:cc="http://creativecommons.org/ns#" xmlns:dc="http://purl.org/dc/elements/1.1/" xmlns:inkscape="http://www.inkscape.org/namespaces/inkscape" xmlns:rdf="http://www.w3.org/1999/02/22-rdf-syntax-ns#" xmlns:sodipodi="http://sodipodi.sourceforge.net/DTD/sodipodi-0.dtd" xmlns:svg="http://www.w3.org/2000/svg"
	 xmlns="http://www.w3.org/2000/svg" xmlns:xlink="http://www.w3.org/1999/xlink" x="0px" y="0px" viewBox="0 0 467.4 434"
	 style="enable-background:new 0 0 467.4 434;" xml:space="preserve">
<style type="text/css">
	.st0{fill:#0D6EFD;}
</style>
<g transform="translate(0,-952.36218)">
	<path class="st0" d="M233.7,952.4c-50.2,0-91.8,37.2-100.5,85.9c-9.8-3.1-20.1-5.2-30.8-5.2C45.8,1033,0,1080.3,0,1137.9
		c0,53.6,39.7,98.2,90.8,104.2V1373c0,7.4,6,13.4,13.4,13.4c0.1,0,0.1,0,0.2,0h258.7c7.4,0.1,13.5-5.8,13.6-13.2c0-0.1,0-0.1,0-0.2
		v-178.4c0-7.4-6-13.5-13.5-13.5s-13.5,6-13.5,13.5l0,0v165h-232v-32.3h205c7.4,0.3,13.6-5.5,13.9-12.9c0.3-7.4-5.5-13.6-12.9-13.9
		c-0.3,0-0.6,0-1,0h-205v-105.9c0.1-7.4-5.7-13.5-13.1-13.7c-0.6,0-1.2,0-1.8,0.1c-6.9,0.7-12.1,6.6-12,13.6v20.3
		c-36.2-5.7-64-37.6-64-77c0-43.5,33.9-78.1,75.6-78.1c13.1,0,25.3,3.2,35.8,9c6.5,3.5,14.6,1.2,18.2-5.3c1.1-2,1.7-4.2,1.6-6.5
		c0-43.5,33.9-77.9,75.6-77.9c38,0,60.4,19,71.8,44.2c11.4,25.2,10,56.8-3.7,78.6c-4.4,6-3.1,14.3,2.8,18.7c6,4.4,14.3,3.1,18.7-2.8
		c0.4-0.5,0.7-1.1,1-1.6c9.4-15.1,14.5-32.5,15.5-50.3c6.8-3.1,11-6.1,25-6.1c41.8,0,75.6,34.5,75.6,78.1
		c0,26.2-12.4,49.1-31.3,63.3c-5.9,4.5-7.1,12.9-2.6,18.8c4.5,5.9,12.9,7.1,18.8,2.6c25.5-19.2,41.9-50,41.9-84.7
		c0-57.6-45.8-104.9-102.4-104.9c-12,0-20.7,2.2-27,4.5c-1.7-8.7-4.5-17.3-8.2-25.4C314.7,978.8,281.2,952.4,233.7,952.4z
		 M102.6,1075c-33.7,0-61.2,28.3-61.2,62.9c-0.8,7.5,4.4,14.2,11.7,15c7.3,0.8,13.8-4.5,14.6-12c0.1-1,0.1-2,0-3
		c0-19.9,15.6-35.6,35-35.6c7.3,0,13.3-6.1,13.3-13.7S109.9,1075,102.6,1075z"/>
</g>
</svg>
